# Blender 4.2.14 LTS
# www.blender.org
o Cube
v 0.498334 0.498334 -0.500000
v 0.498334 0.500000 -0.498334
v 0.500000 0.498334 -0.498334
v 0.498334 0.499512 -0.499512
v 0.499296 0.499296 -0.499296
v 0.499512 0.499512 -0.498334
v 0.499512 0.498334 -0.499512
v 0.498334 -0.500000 -0.498334
v 0.498334 -0.498334 -0.500000
v 0.500000 -0.498334 -0.498334
v 0.498334 -0.499512 -0.499512
v 0.499296 -0.499296 -0.499296
v 0.499512 -0.498334 -0.499512
v 0.499512 -0.499512 -0.498334
v 0.500000 0.498334 0.498334
v 0.498334 0.500000 0.498334
v 0.498334 0.498334 0.500000
v 0.499512 0.499512 0.498334
v 0.499296 0.499296 0.499296
v 0.498334 0.499512 0.499512
v 0.499512 0.498334 0.499512
v 0.500000 -0.498334 0.498334
v 0.498334 -0.498334 0.500000
v 0.498334 -0.500000 0.498334
v 0.499512 -0.498334 0.499512
v 0.499296 -0.499296 0.499296
v 0.498334 -0.499512 0.499512
v 0.499512 -0.499512 0.498334
v -0.498334 0.498334 -0.500000
v -0.500000 0.498334 -0.498334
v -0.498334 0.500000 -0.498334
v -0.499512 0.498334 -0.499512
v -0.499296 0.499296 -0.499296
v -0.499512 0.499512 -0.498334
v -0.498334 0.499512 -0.499512
v -0.500000 -0.498334 -0.498334
v -0.498334 -0.498334 -0.500000
v -0.498334 -0.500000 -0.498334
v -0.499512 -0.498334 -0.499512
v -0.499296 -0.499296 -0.499296
v -0.498334 -0.499512 -0.499512
v -0.499512 -0.499512 -0.498334
v -0.500000 0.498334 0.498334
v -0.498334 0.498334 0.500000
v -0.498334 0.500000 0.498334
v -0.499512 0.498334 0.499512
v -0.499296 0.499296 0.499296
v -0.498334 0.499512 0.499512
v -0.499512 0.499512 0.498334
v -0.498334 -0.500000 0.498334
v -0.498334 -0.498334 0.500000
v -0.500000 -0.498334 0.498334
v -0.498334 -0.499512 0.499512
v -0.499296 -0.499296 0.499296
v -0.499512 -0.498334 0.499512
v -0.499512 -0.499512 0.498334
vn 0.1794 0.1794 -0.9673
vn 0.1794 0.9673 -0.1794
vn 0.9673 0.1794 -0.1794
vn 0.1726 0.6965 -0.6965
vn 0.5774 0.5774 -0.5774
vn 0.6965 0.6965 -0.1726
vn 0.6965 0.1726 -0.6965
vn 0.1794 -0.9673 -0.1794
vn 0.1794 -0.1794 -0.9673
vn 0.9673 -0.1794 -0.1794
vn 0.1726 -0.6965 -0.6965
vn 0.5774 -0.5774 -0.5774
vn 0.6965 -0.1726 -0.6965
vn 0.6965 -0.6965 -0.1726
vn 0.9673 0.1794 0.1794
vn 0.1794 0.9673 0.1794
vn 0.1794 0.1794 0.9673
vn 0.6965 0.6965 0.1726
vn 0.5774 0.5774 0.5774
vn 0.1726 0.6965 0.6965
vn 0.6965 0.1726 0.6965
vn 0.9673 -0.1794 0.1794
vn 0.1794 -0.1794 0.9673
vn 0.1794 -0.9673 0.1794
vn 0.6965 -0.1726 0.6965
vn 0.5774 -0.5774 0.5774
vn 0.1726 -0.6965 0.6965
vn 0.6965 -0.6965 0.1726
vn -0.1794 0.1794 -0.9673
vn -0.9673 0.1794 -0.1794
vn -0.1794 0.9673 -0.1794
vn -0.6965 0.1726 -0.6965
vn -0.5774 0.5774 -0.5774
vn -0.6965 0.6965 -0.1726
vn -0.1726 0.6965 -0.6965
vn -0.9673 -0.1794 -0.1794
vn -0.1794 -0.1794 -0.9673
vn -0.1794 -0.9673 -0.1794
vn -0.6965 -0.1726 -0.6965
vn -0.5774 -0.5774 -0.5774
vn -0.1726 -0.6965 -0.6965
vn -0.6965 -0.6965 -0.1726
vn -0.9673 0.1794 0.1794
vn -0.1794 0.1794 0.9673
vn -0.1794 0.9673 0.1794
vn -0.6965 0.1726 0.6965
vn -0.5774 0.5774 0.5774
vn -0.1726 0.6965 0.6965
vn -0.6965 0.6965 0.1726
vn -0.1794 -0.9673 0.1794
vn -0.1794 -0.1794 0.9673
vn -0.9673 -0.1794 0.1794
vn -0.1726 -0.6965 0.6965
vn -0.5774 -0.5774 0.5774
vn -0.6965 -0.1726 0.6965
vn -0.6965 -0.6965 0.1726
vt 0.125417 0.500417
vt 0.374583 0.500417
vt 0.374583 0.749583
vt 0.125417 0.749583
vt 0.375417 0.000417
vt 0.624583 0.000417
vt 0.624583 0.249583
vt 0.375417 0.249583
vt 0.375417 0.750417
vt 0.624583 0.750417
vt 0.624583 0.999583
vt 0.375417 0.999583
vt 0.625417 0.500417
vt 0.874583 0.500417
vt 0.874583 0.749583
vt 0.625417 0.749583
vt 0.375417 0.500417
vt 0.624583 0.500417
vt 0.624583 0.749583
vt 0.375417 0.749583
vt 0.624583 0.499583
vt 0.625000 0.499583
vt 0.624941 0.500000
vt 0.624583 0.500000
vt 0.625000 0.500417
vt 0.625417 0.500000
vt 0.374583 0.500000
vt 0.375000 0.500059
vt 0.375000 0.500417
vt 0.375417 0.499583
vt 0.375417 0.500000
vt 0.375000 0.499583
vt 0.625000 0.749583
vt 0.625000 0.749941
vt 0.624583 0.750000
vt 0.625417 0.750000
vt 0.625000 0.750417
vt 0.375417 0.750000
vt 0.375059 0.750000
vt 0.375000 0.749583
vt 0.375000 0.750417
vt 0.374583 0.750000
vt 0.624583 0.250417
vt 0.624583 0.250000
vt 0.624824 0.250000
vt 0.625000 0.250417
vt 0.625000 0.249583
vt 0.625000 0.249824
vt 0.874583 0.500000
vt 0.874824 0.500000
vt 0.875000 0.500417
vt 0.375417 0.250000
vt 0.375176 0.250000
vt 0.375000 0.249583
vt 0.375417 0.250417
vt 0.375000 0.250417
vt 0.375000 0.250176
vt 0.125000 0.500417
vt 0.125000 0.500176
vt 0.125417 0.500000
vt 0.624583 0.000000
vt 0.624824 0.000000
vt 0.625000 0.000417
vt 0.625000 0.999583
vt 0.625000 0.999824
vt 0.624583 1.000000
vt 0.875000 0.749583
vt 0.875000 0.749824
vt 0.874583 0.750000
vt 0.125417 0.750000
vt 0.125176 0.750000
vt 0.125000 0.749583
vt 0.375417 1.000000
vt 0.375176 1.000000
vt 0.375000 0.999583
vt 0.375000 0.000417
vt 0.375000 0.000176
vt 0.375417 0.000000
s 1
f 38/1/38 8/2/8 24/3/24 50/4/50
f 52/5/52 43/6/43 30/7/30 36/8/36
f 23/9/23 17/10/17 44/11/44 51/12/51
f 2/13/2 31/14/31 45/15/45 16/16/16
f 10/17/10 3/18/3 15/19/15 22/20/22
f 1/21/1 4/22/4 5/23/5 7/24/7
f 2/13/2 6/25/6 5/23/5 4/26/4
f 3/18/3 7/24/7 5/23/5 6/25/6
f 8/2/8 11/27/11 12/28/12 14/29/14
f 9/30/9 13/31/13 12/28/12 11/32/11
f 10/17/10 14/29/14 12/28/12 13/31/13
f 15/19/15 18/33/18 19/34/19 21/35/21
f 16/16/16 20/36/20 19/34/19 18/33/18
f 17/10/17 21/35/21 19/34/19 20/37/20
f 22/20/22 25/38/25 26/39/26 28/40/28
f 23/9/23 27/41/27 26/39/26 25/38/25
f 24/3/24 28/40/28 26/39/26 27/42/27
f 29/43/29 32/44/32 33/45/33 35/46/35
f 30/7/30 34/47/34 33/48/33 32/44/32
f 31/14/31 35/49/35 33/50/33 34/51/34
f 36/8/36 39/52/39 40/53/40 42/54/42
f 37/55/37 41/56/41 40/57/40 39/52/39
f 38/1/38 42/58/42 40/59/40 41/60/41
f 43/6/43 46/61/46 47/62/47 49/63/49
f 44/11/44 48/64/48 47/65/47 46/66/46
f 45/15/45 49/67/49 47/68/47 48/69/48
f 50/4/50 53/70/53 54/71/54 56/72/56
f 51/12/51 55/73/55 54/74/54 53/75/53
f 52/5/52 56/76/56 54/77/54 55/78/55
f 38/1/38 50/4/50 56/72/56 42/58/42
f 42/54/42 56/76/56 52/5/52 36/8/36
f 8/2/8 38/1/38 41/60/41 11/27/11
f 11/32/11 41/56/41 37/55/37 9/30/9
f 3/18/3 10/17/10 13/31/13 7/24/7
f 7/24/7 13/31/13 9/30/9 1/21/1
f 51/12/51 44/11/44 46/66/46 55/73/55
f 55/78/55 46/61/46 43/6/43 52/5/52
f 17/10/17 23/9/23 25/38/25 21/35/21
f 21/35/21 25/38/25 22/20/22 15/19/15
f 29/43/29 37/55/37 39/52/39 32/44/32
f 32/44/32 39/52/39 36/8/36 30/7/30
f 16/16/16 45/15/45 48/69/48 20/36/20
f 20/37/20 48/64/48 44/11/44 17/10/17
f 2/13/2 16/16/16 18/33/18 6/25/6
f 6/25/6 18/33/18 15/19/15 3/18/3
f 50/4/50 24/3/24 27/42/27 53/70/53
f 53/75/53 27/41/27 23/9/23 51/12/51
f 45/15/45 31/14/31 34/51/34 49/67/49
f 49/63/49 34/47/34 30/7/30 43/6/43
f 31/14/31 2/13/2 4/26/4 35/49/35
f 35/46/35 4/22/4 1/21/1 29/43/29
f 24/3/24 8/2/8 14/29/14 28/40/28
f 28/40/28 14/29/14 10/17/10 22/20/22
f 37/55/37 29/43/29 1/21/1 9/30/9
